<svg width="64" height="64" viewBox="0 0 64 64" fill="none" xmlns="http://www.w3.org/2000/svg">
  <defs>
    <linearGradient id="bg" x1="0%" y1="0%" x2="100%" y2="100%">
      <stop offset="0%" style="stop-color:#0891b2"/>
      <stop offset="100%" style="stop-color:#0e7490"/>
    </linearGradient>
  </defs>
  <rect width="64" height="64" rx="14" fill="url(#bg)"/>
  <path d="M22 14C18 14 16 18 16 22C16 30 20 34 20 40C20 48 14 50 14 56C14 60 18 62 24 62C28 62 30 58 30 52V40C30 36 34 34 34 28C34 20 32 16 28 16C26 16 24 18 24 22V40" fill="white" stroke="white" stroke-width="2" stroke-linecap="round"/>
  <path d="M42 14C46 14 48 18 48 22C48 30 44 34 44 40C44 48 50 50 50 56C50 60 46 62 40 62C36 62 34 58 34 52V40C34 36 30 34 30 28C30 20 32 16 36 16C38 16 40 18 40 22V40" fill="white" stroke="white" stroke-width="2" stroke-linecap="round"/>
</svg>
