<svg width="400" height="200" viewBox="0 0 400 200" fill="none" xmlns="http://www.w3.org/2000/svg">
  <defs>
    <linearGradient id="bg" x1="0%" y1="0%" x2="100%" y2="100%">
      <stop offset="0%" style="stop-color:#0891b2"/>
      <stop offset="100%" style="stop-color:#0e7490"/>
    </linearGradient>
  </defs>
  <rect width="120" height="120" rx="28" fill="url(#bg)"/>
  <path d="M42 30C36 30 33 36 33 42C33 54 39 60 39 68C39 80 30 83 30 96C30 105 39 108 48 108C54 108 57 102 57 93V68C57 62 63 59 63 50C63 38 60 32 54 32C51 32 48 36 48 42V68" fill="white" stroke="white" stroke-width="2" stroke-linecap="round"/>
  <path d="M78 30C84 30 87 36 87 42C87 54 81 60 81 68C81 80 90 83 90 96C90 105 81 108 72 108C66 108 63 102 63 93V68C63 62 57 59 57 50C57 38 60 32 66 32C69 32 72 36 72 42V68" fill="white" stroke="white" stroke-width="2" stroke-linecap="round"/>
  <circle cx="48" cy="42" r="3" fill="#0891b2"/>
  <circle cx="72" cy="42" r="3" fill="#0891b2"/>
  <text x="155" y="65" font-family="Arial, sans-serif" font-size="36" font-weight="bold" fill="#0891b2">Dental</text>
  <text x="155" y="100" font-family="Arial, sans-serif" font-size="36" font-weight="bold" fill="#0e7490">CRM</text>
  <text x="155" y="130" font-family="Arial, sans-serif" font-size="14" fill="#6b7280">Smart Dental Hospital Support</text>
</svg>
