<svg width="400" height="200" viewBox="0 0 400 200" fill="none" xmlns="http://www.w3.org/2000/svg">
  <defs>
    <linearGradient id="bg" x1="0%" y1="0%" x2="100%" y2="100%">
      <stop offset="0%" style="stop-color:#06b6d4"/>
      <stop offset="100%" style="stop-color:#0891b2"/>
    </linearGradient>
  </defs>
  <rect width="120" height="120" rx="28" fill="url(#bg)"/>
  <g transform="translate(60,55) scale(0.55)">
    <path d="M-8,-42 C-20,-42 -28,-32 -28,-20 C-28,-4 -22,8 -22,20 C-22,36 -32,42 -32,58 C-32,68 -24,72 -14,72 C-4,72 0,62 0,48 L0,10 C0,2 4,-2 8,-2 C12,-2 16,2 16,10 L0,48 C0,62 4,72 14,72 C24,72 32,68 32,58 C32,42 22,36 22,20 C22,8 28,-4 28,-20 C28,-32 20,-42 8,-42 Z" fill="white"/>
    <rect x="-3" y="-18" width="6" height="16" rx="2" fill="#06b6d4"/>
    <rect x="-8" y="-13" width="16" height="6" rx="2" fill="#06b6d4"/>
  </g>
  <text x="155" y="58" font-family="Arial, Helvetica, sans-serif" font-size="40" font-weight="800" fill="#0891b2">Dental</text>
  <text x="310" y="58" font-family="Arial, Helvetica, sans-serif" font-size="40" font-weight="800" fill="#0e7490">CRM</text>
  <text x="155" y="88" font-family="Arial, Helvetica, sans-serif" font-size="14" fill="#6b7280" letter-spacing="0.5">Smart Dental Hospital Support</text>
  <text x="155" y="108" font-family="Arial, Helvetica, sans-serif" font-size="12" fill="#9ca3af">Patient Management  •  Appointments  •  AI Support</text>
</svg>
