<svg width="200" height="200" viewBox="0 0 200 200" fill="none" xmlns="http://www.w3.org/2000/svg">
  <defs>
    <linearGradient id="bg" x1="0%" y1="0%" x2="100%" y2="100%">
      <stop offset="0%" style="stop-color:#06b6d4"/>
      <stop offset="100%" style="stop-color:#0891b2"/>
    </linearGradient>
    <filter id="shadow" x="-10%" y="-10%" width="120%" height="120%">
      <feDropShadow dx="0" dy="2" stdDeviation="4" flood-color="#000" flood-opacity="0.15"/>
    </filter>
  </defs>
  <rect width="200" height="200" rx="44" fill="url(#bg)"/>
  <!-- Tooth shape - cleaner, more modern -->
  <g transform="translate(100,88) scale(1.1)" filter="url(#shadow)">
    <path d="M-8,-42 C-20,-42 -28,-32 -28,-20 C-28,-4 -22,8 -22,20 C-22,36 -32,42 -32,58 C-32,68 -24,72 -14,72 C-4,72 0,62 0,48 L0,10 C0,2 4,-2 8,-2 C12,-2 16,2 16,10 L0,48 C0,62 4,72 14,72 C24,72 32,68 32,58 C32,42 22,36 22,20 C22,8 28,-4 28,-20 C28,-32 20,-42 8,-42 Z" fill="white"/>
    <!-- Dental cross icon -->
    <rect x="-3" y="-18" width="6" height="16" rx="2" fill="#06b6d4"/>
    <rect x="-8" y="-13" width="16" height="6" rx="2" fill="#06b6d4"/>
  </g>
  <text x="100" y="178" text-anchor="middle" font-family="Arial, Helvetica, sans-serif" font-size="16" font-weight="700" fill="white" letter-spacing="2">DENTALCRM</text>
</svg>
